<svg version="1.1" id="Layer_1" xmlns="http://www.w3.org/2000/svg" x="0" y="0" width="284" height="52.3" style="enable-background:new 0 0 284 52.3" xml:space="preserve"><style>.st0{fill:#d3ffb4}</style><path class="st0" d="M44.6 51.2V22.3L32.2 51.2h-6.9L13.1 22.3v28.9H.3V1.1h17.2l11.8 28.3L41.6 1.1h15.8v50.1H44.6zM67.3 51.2V1.1h11c1 0 1.9 1 1.9 2v48.1H67.3zM115.8 22.4h16.3c1.3 0 2 1 2 2.3v25.9c-4.6 1-11.8 1.7-17.1 1.7-18.7 0-28.5-8.9-28.5-26.1 0-15.3 9.8-26 26.3-26 7.2 0 13.6 1.9 17.7 4.7l-5.1 8.6c-3.5-1.6-8.3-2.7-11.7-2.7-9.4 0-13.9 6.3-13.9 15.3 0 9.7 5.1 15.7 14.5 15.7 1.7 0 3.9-.1 5.6-.3v-8.8h-6.2l.1-10.3zM172.1 51.2l-5.9-13.8c-1.2-2.8-2.1-4.2-4.6-4.2h-5.2v18h-12.6V3.1c0-1 1.1-2 2-2h17.8c9.7 0 17.9 2 17.9 14.5 0 5.6-3.1 11.3-8.9 12.5 2.9 1 5.8 4.7 7.4 8.7l5.7 14.5-13.6-.1zm-9.4-40.4h-6.3v12.6h6.3c3.8 0 6.7-2 6.7-6.8s-3-5.8-6.7-5.8zM213.5 52.2c-16.4 0-25.1-11.6-25.1-26.1s8.7-26 25.1-26c15.4 0 24.1 11.6 24.1 26s-8.7 26.1-24.1 26.1zm0-41.4c-6.8 0-11.6 4.8-11.6 15.3s4.8 15.5 11.6 15.5c5.8 0 10.5-4.8 10.5-15.5s-4.7-15.3-10.5-15.3zM262.2 52.2c-8.5 0-16.3-3-19.9-5.5l5.7-10.1c3.2 1.9 9.4 4.9 15.1 4.9 3.2 0 7.3-.6 7.3-4.2 0-3.4-4.6-4.4-10.6-6.1-7.2-2.1-15.6-5-15.6-14.7C244.2 6 253.5.1 265.6.1c8 0 14.2 2.8 17.4 5.9l-7 7.9c-3.4-2.1-7-3.7-10.9-3.7-4.8 0-7.4 1.8-7.4 4.4s3.5 3.9 7.8 5.2c7.7 2.4 18.1 4.8 18.1 14.8s-8.1 17.6-21.4 17.6z"/></svg>