<?xml version="1.0" encoding="UTF-8"?>
<svg xmlns="http://www.w3.org/2000/svg" version="1.1" viewBox="0 0 566.9 104.5">
  <defs>
    <style>
      .cls-1 {
        fill: #fff;
      }
    </style>
  </defs>
  <!-- Generator: Adobe Illustrator 28.6.0, SVG Export Plug-In . SVG Version: 1.2.0 Build 709)  -->
  <g>
    <g id="Ebene_1">
      <g>
        <path class="cls-1" d="M98.4,99.8v-55l-23.6,55h-13.1l-23.2-55v55H14.2V4.6h32.6l22.4,53.8L92.6,4.6h30.1v95.2s-24.4,0-24.4,0Z"/>
        <path class="cls-1" d="M141.5,99.8V4.6h20.8c1.8,0,3.6,1.8,3.6,3.8v91.4h-24.5Z"/>
        <path class="cls-1" d="M233.6,45h31c2.5,0,3.8,2,3.8,4.3v49.2c-8.7,1.9-22.3,3.1-32.4,3.1-35.5,0-54.2-16.9-54.2-49.6,0-29.1,18.7-49.3,49.9-49.3s25.8,3.7,33.6,8.9l-9.6,16.4c-6.7-3-15.8-5.1-22.1-5.1-17.9,0-26.3,11.9-26.3,29.1s9.7,29.8,27.6,29.8,7.4-.1,10.6-.6v-16.8h-11.8v-19.5h0Z"/>
        <path class="cls-1" d="M340.7,99.8l-11.3-26.2c-2.3-5.3-3.9-8-8.8-8h-9.9v34.2h-23.9V8.4c0-2,2.2-3.8,3.7-3.8h33.8c18.4,0,34.1,3.8,34.1,27.5s-5.9,21.5-16.9,23.7c5.5,1.9,11,8.9,14,16.5l10.9,27.5h-25.7,0ZM322.7,23h-12v23.9h12c7.1,0,12.8-3.8,12.8-12.9s-5.6-11-12.8-11h0Z"/>
        <path class="cls-1" d="M419.3,101.7c-31.2,0-47.7-22-47.7-49.6S388.1,2.8,419.3,2.8s45.7,22,45.7,49.3-16.5,49.6-45.7,49.6ZM419.3,23c-12.8,0-22,9.2-22,29.1s9.1,29.4,22,29.4,20-9.1,20-29.4-9-29.1-20-29.1h0Z"/>
        <path class="cls-1" d="M511.9,101.7c-16.1,0-31-5.8-37.7-10.4l10.8-19.2c6.1,3.7,17.8,9.3,28.7,9.3s13.9-1.2,13.9-8-8.7-8.4-20.1-11.6c-13.7-3.9-29.7-9.4-29.7-27.9s17.7-31.1,40.7-31.1,27,5.4,33,11.1l-13.2,15c-6.5-3.9-13.2-7-20.7-7s-14.1,3.4-14.1,8.4,6.6,7.5,14.8,9.9c14.6,4.5,34.4,9.1,34.4,28.2s-15.7,33.1-40.9,33.1h0Z"/>
      </g>
    </g>
  </g>
</svg>