<svg version="1.1" id="Layer_1" xmlns="http://www.w3.org/2000/svg" x="0" y="0" width="131.7" height="84.3" style="enable-background:new 0 0 131.7 84.3" xml:space="preserve"><style>.st0,.st1{fill:#d3ffb4}.st1{fill-rule:evenodd;clip-rule:evenodd}</style><path class="st0" d="M4.7 76h2.8v-5.5c0-1 0-2.2.5-2.9.5-.8 1.4-1 1.9-1 2.3 0 2.3 2.7 2.3 3.7V76H15v-6.2c0-.9 0-2.8-1.1-4.1-.9-1.2-2.5-1.6-3.4-1.6-1.7 0-2.7.9-3.1 1.4v-1H4.7V76"/><path class="st1" d="M18.4 69.3c.5-2.1 2.2-2.7 3.2-2.7 1.4 0 2.8.8 3.1 2.7h-6.3m9 2.2c.1-.4.2-.8.2-1.4 0-2.9-2.3-6-5.9-6s-6 3-6 6.2 2.7 6.1 6.1 6.1c2.7 0 4.9-1.9 5.5-4h-2.9c-.5.9-1.4 1.5-2.6 1.5-2 0-3-1.6-3.2-2.4h8.8z"/><path class="st0" d="M31.1 76h1.7l2.2-7.4 2.2 7.4h1.6L43 64.5h-2.9L38 71.6l-1.9-7.1h-2.2L32 71.6l-2.1-7.1H27L31.1 76"/><path class="st1" d="M51 70.1c0-1.7 1.3-3.4 3.4-3.4 1.7 0 3.3 1.3 3.3 3.6s-1.5 3.6-3.3 3.6c-1.6 0-3.5-1.2-3.4-3.8M48.4 76h2.5v-1.4c.7.8 1.7 1.8 3.9 1.8 4.2 0 5.7-3.9 5.7-6.2 0-3-2.3-6.1-5.8-6.1-1.3 0-2.6.5-3.6 1.4v-4.9h-2.8c.1.1.1 15.4.1 15.4zM70.7 70.2c0 2.1-1.4 3.6-3.3 3.6S64 72.2 64 70.3c0-1.7 1.2-3.7 3.4-3.7 1.6.1 3.3 1.3 3.3 3.6m2.6-5.7h-2.5V66c-.1-.2-1.5-1.8-3.8-1.8-3.2 0-5.8 2.6-5.8 6.1 0 3.8 2.6 6.2 5.6 6.2 1.4 0 3.1-.8 4-1.8V76h2.5V64.5z"/><path class="st0" d="M74.8 60.7h2.8V76h-2.8z"/><path class="st1" d="M87.8 70.2c0 2.1-1.4 3.6-3.3 3.6s-3.4-1.6-3.4-3.5c0-1.7 1.2-3.7 3.4-3.7 1.6.1 3.3 1.3 3.3 3.6m2.7-5.7H88V66c-.1-.2-1.5-1.8-3.8-1.8-3.2 0-5.8 2.6-5.8 6.1 0 3.8 2.6 6.2 5.6 6.2 1.4 0 3.1-.8 4-1.8V76h2.5V64.5z"/><path class="st0" d="M91.9 76h2.8v-5.5c0-1 0-2.2.5-2.9.5-.8 1.4-1 1.9-1 2.3 0 2.3 2.7 2.3 3.7V76h2.8v-6.2c0-.9 0-2.8-1.1-4.1-.9-1.2-2.5-1.6-3.4-1.6-1.7 0-2.7.9-3.1 1.4v-1h-2.5L91.9 76M111.9 72.3c-.7 1.2-1.6 1.6-2.5 1.6-2.1 0-3.4-1.6-3.4-3.6 0-2.4 1.7-3.6 3.3-3.6s2.3 1.1 2.7 1.7h3.1c-1.2-3.5-4.3-4.2-5.8-4.2-3.2 0-6.1 2.6-6.1 6.1 0 3.8 3.2 6.2 6.1 6.2 2.7 0 4.8-1.6 5.8-4.1l-3.2-.1"/><path class="st1" d="M118.2 69.3c.5-2.1 2.2-2.7 3.2-2.7 1.4 0 2.8.8 3.1 2.7h-6.3m9 2.2c.1-.4.2-.8.2-1.4 0-2.9-2.3-6-5.9-6s-6 3-6 6.2 2.7 6.1 6.1 6.1c2.7 0 4.9-1.9 5.5-4h-2.9c-.5.9-1.4 1.5-2.7 1.5-2 0-3-1.6-3.2-2.4h8.9zM68.2 24.8l4.3-7.4 14.4-.9.5-.9-13.4-.9 3.1-5.4H102c7.6 0 13.3 2.7 11.1 10.7-.7 2.4-3.8 8.5-12.8 11.1 1.9.2 6.7 2.4 5.9 7.9-1.5 9.8-14.1 14.4-21.2 14.4H55.7l-1.4-5.7 15.3-1.1.5-.9-16.6-1-1.8-6.7 23.7-1.4.5-.9L33.3 33l2-3.5 45.7-3 .5-.9-13.3-.8m19.1 1.4h4.2c2.8 0 5.8-1.3 6.8-3.9 1-2.4-.3-4.5-2.1-4.5h-4.1l-4.8 8.4zm-4.8 8.5-5.1 8.8h4.8c2.2 0 6.3-1.1 7.5-4.3 1.2-3-1-4.5-2.4-4.5h-4.8zM45.6 48.3l-2.9 5h-21l2-3.5 21.9-1.5zm1.5-39.1H64l1.3 4.8-20.2-1.3 2-3.5zm19.1 8.5 1.8 7-28.9-1.9 2-3.5 25.1-1.6zM51.5 38l-3.7 6.3-20.4-1.1 2-3.5L51.5 38z"/></svg>