<?xml version="1.0" encoding="UTF-8"?>
<svg xmlns="http://www.w3.org/2000/svg" version="1.1" viewBox="0 0 566.9 363.1">
  <defs>
    <style>
      .cls-1, .cls-2 {
        fill: #fff;
      }

      .cls-2 {
        fill-rule: evenodd;
      }
    </style>
  </defs>
  <!-- Generator: Adobe Illustrator 28.6.0, SVG Export Plug-In . SVG Version: 1.2.0 Build 709)  -->
  <g>
    <g id="Layer_1">
      <g>
        <path class="cls-1" d="M14.4,328.1h12.1v-24c0-4.3,0-9.5,2.2-12.6,2.2-3.3,6.1-4.4,8.3-4.4,10.2,0,10.2,12,10.2,16.2v24.9h12.1v-27.2c0-3.9,0-12.3-4.6-17.9-4.2-5.1-10.8-7-15.1-7-7.6,0-11.8,4.2-13.8,6.1v-4.4h-11.2v50.4"/>
        <path class="cls-2" d="M74.5,298.6c2.3-9.4,9.8-11.8,14.3-11.8s12.2,3.7,13.6,11.8h-27.9M114,308.3c.4-1.6.7-3.7.7-6.1,0-12.7-10.1-26.5-26.1-26.5s-26.5,13.1-26.5,27.3,11.6,26.7,26.6,26.7,21.4-8.4,24.3-17.5h-12.7c-2.3,4.2-6.3,6.5-11.6,6.5-8.6,0-13.3-7.1-13.9-10.4h39.2Z"/>
        <polyline class="cls-1" points="130.2 328.1 137.6 328.1 147.2 295.4 147.4 295.4 156.8 328.1 164.3 328.1 182.7 277.7 169.8 277.7 160.6 308.5 160.3 308.5 152.2 277.7 142.6 277.7 134.3 308.5 134.1 308.5 125 277.7 112.1 277.7 130.2 328.1"/>
        <path class="cls-2" d="M217.4,302.2c0-7.4,5.7-15.1,15-15.1s14.7,5.9,14.7,15.7-6.6,15.9-14.5,15.9-15.2-5.3-15.2-16.4M206.1,328.1h11.1v-6.1c3,3.4,7.3,7.7,17,7.7,18.4,0,25.1-17,25.1-27s-10-26.7-25.3-26.7-11.5,2.1-15.7,6.3v-21.3h-12.1s0,67.2,0,67.2Z"/>
        <path class="cls-2" d="M304.1,302.8c0,9.4-6.4,15.9-14.7,15.9s-15-7-15-15.5,5.1-16.1,15-16.1,14.7,5.3,14.7,15.7M315.5,277.7h-11.1v6.4h-.2c-.4-.7-6.5-8.1-16.7-8.1s-25.2,11.2-25.2,26.6,11.5,27.1,24.5,27.1,13.8-3.4,17.6-7.9v6.2h11.1v-50.4h0Z"/>
        <rect class="cls-1" x="321.9" y="260.9" width="12.1" height="67.2"/>
        <path class="cls-2" d="M379.4,302.8c0,9.4-6.4,15.9-14.7,15.9s-15-7-15-15.5,5.1-16.1,15-16.1,14.7,5.3,14.7,15.7M390.9,277.7h-11.1v6.4h-.2c-.4-.7-6.5-8.1-16.7-8.1s-25.2,11.2-25.2,26.6,11.5,27.1,24.5,27.1,13.8-3.4,17.6-7.9v6.2h11.1v-50.4h0Z"/>
        <path class="cls-1" d="M397.3,328.1h12.1v-24c0-4.3,0-9.5,2.2-12.6,2.2-3.3,6.1-4.4,8.3-4.4,10.2,0,10.2,12,10.2,16.2v24.9h12.1v-27.2c0-3.9,0-12.3-4.7-17.9-4.2-5.1-10.8-7-15.1-7-7.6,0-11.8,4.2-13.8,6.1v-4.4h-11.2v50.4"/>
        <path class="cls-1" d="M484.9,311.6c-3.2,5.1-7.2,7-11.2,7-9.1,0-15.1-7.2-15.1-15.8s7.3-15.8,14.6-15.8,10.3,4.8,11.7,7.3h13.6c-5.2-15.5-19-18.4-25.3-18.4-13.9,0-26.7,11.3-26.7,26.7s13.9,27,26.8,27,21.2-6.8,25.2-18.1h-13.6"/>
        <path class="cls-2" d="M512.8,298.6c2.3-9.4,9.8-11.8,14.3-11.8s12.2,3.7,13.6,11.8h-27.9M552.3,308.3c.4-1.6.7-3.7.7-6.1,0-12.7-10.1-26.5-26-26.5s-26.5,13.1-26.5,27.3,11.6,26.7,26.6,26.7,21.4-8.4,24.3-17.5h-12.7c-2.3,4.2-6.3,6.5-11.6,6.5-8.6,0-13.3-7.1-13.9-10.4h39.1Z"/>
        <path class="cls-2" d="M293.2,103l18.7-32.5,63.4-4.1,2.2-4-58.6-4.1,13.7-23.8h108.8c33.5,0,58.2,11.9,48.6,47.1-2.9,10.7-16.5,37.5-56.4,48.7,8.5,1,29.5,10.4,25.9,34.5-6.5,42.9-62.1,63.4-93,63.4h-128.4l-6.3-24.8,67.3-4.7,2.3-4-73-4.4-7.9-29.5,103.8-6.1,2.2-3.9-186.5-11.8,9-15.5,200.8-13,2.3-3.9-58.9-3.8M377.2,109.5h18.6c12.3-.2,25.2-5.8,29.9-17.3,4.3-10.6-1.5-19.7-9.2-19.7h-18l-21.3,37h0ZM355.9,146.5l-22.3,38.7h21.3c9.9,0,27.5-4.9,33-19,5-13-4.2-19.8-10.7-19.8h-21.2ZM193.9,206.3l-12.9,22.1h-92.3c0,0,9-15.4,9-15.4l96.2-6.7h0ZM200.4,34.6h74.2l5.6,21.1-88.7-5.6s8.9-15.5,8.9-15.5ZM284.4,72.3l8.1,30.8-126.7-8.3,9-15.5,109.7-6.9h0ZM219.9,161.1l-16.2,27.9-89.3-5,9-15.5,96.5-7.3h0Z"/>
      </g>
    </g>
  </g>
</svg>