<svg xmlns="http://www.w3.org/2000/svg" width="113.8" height="41.6" style="enable-background:new 0 0 113.8 41.6" xml:space="preserve"><path style="fill:none" d="M65.2 8.6h-3.3l-1.2-3H64z"/><path d="m64 5.6 1.2 3h-3.3l-1.2-3h3.1L61.6 0h-3.3l2.2 5.7H.2v33h113.4v-33H64v-.1zm-50.4 29C10 34.6 7 32 5.9 28.1l3.1-.6c.8 2.3 2.7 4.1 5.1 4.1s3.9-1.7 3.9-4c0-.6-.1-1.1-.4-1.5-.6-1.3-2.1-1.9-3.5-2.5l-1.6-.6c-2.5-1.1-4.9-2.4-4.9-5.9 0-3.6 3.4-5.6 6.7-5.6 2.5 0 5.2 1.5 6.4 3.7L18 16.7c-.9-1.3-2.3-2.4-3.8-2.4s-3.3.9-3.3 2.8c0 1.8 1.5 2.4 2.9 3l1.6.6c2.6 1 5 2.7 5.7 5.4.1.5.2 1.1.2 1.8 0 3.9-3.7 6.7-7.7 6.7zm31.2 0H44l-3-8.5-2.4-6.9-2.6 6.9-3 8.5h-.8l-3.5-8.5L22.9 12h3.5L32 26.1l.6 1.4.5-1.4 5.2-14.6h.3L44 26.1l.5 1.4.6-1.4L50.5 12h3.2l-5.6 14.1-3.3 8.5zm14.4-8.5-3.4 8.1h-3.4l3.4-8.1 6-14.1h3.4l-6 14.1zm24.7-9.2c-1.6-1.3-3.5-2.3-5.6-2.3-5 0-8.4 3.7-8.4 8.6 0 1 .2 2 .5 2.9 1.1 3.3 4.2 5.4 7.9 5.4 1.9 0 3.9-.8 5.4-1.9V33c-1.7 1-3.4 1.5-5.3 1.5-5.4 0-10-3.5-11.2-8.4-.2-.9-.3-1.8-.3-2.8 0-6.9 5.2-11.7 11.8-11.7 1.9 0 3.6.5 5.3 1.6l-.1 3.7zm21.8 17.3-2.6-5.4h-9.8l-2.6 5.4h-3.3l3.8-8.1 7-14.9h.4l6.7 14.9 3.6 8.1h-3.2zM94.6 26l3.7-7.8 3.5 7.8h-7.2z" style="fill:#d3ffb4"/></svg>