<?xml version="1.0" encoding="UTF-8"?>
<svg id="Logo" xmlns="http://www.w3.org/2000/svg" viewBox="0 0 337.28 117.89">
  <defs>
    <style>
      .cls-1 {
        fill: #fff;
      }
    </style>
  </defs>
  <path class="cls-1" d="M281.45,41.79c-.6,0-1.18.35-1.45,1.11l-7.61,21.05c-.27.75.26,1.62,1.11,1.63h16c.86,0,1.39-.86,1.11-1.63l-7.7-21.05c-.28-.76-.86-1.11-1.45-1.11Z"/>
  <path class="cls-1" d="M307.81,0H29.47C13.19,0,0,13.2,0,29.47v58.95C0,104.7,13.19,117.89,29.47,117.89h278.33c16.28,0,29.47-13.2,29.47-29.47V29.47C337.28,13.2,324.08,0,307.81,0ZM50.26,89.7c-14.97,0-22.41-9.58-23.36-18.05l9.24-2.65c1.11,5.73,5.65,11.72,14.12,11.72,7.1,0,11.04-3.59,11.04-8.13,0-3.85-2.82-6.93-7.87-8.04l-8.98-1.71c-8.98-1.8-14.97-7.7-14.97-16.6,0-9.84,9.41-18.05,20.36-18.05,13.52,0,19.68,8.47,20.96,15.06l-8.87,2.55c-1.5-4.95-5.58-8.71-12-8.71-5.99,0-10.44,3.94-10.44,8.47,0,3.68,2.31,6.59,6.84,7.53l9.15,1.8c10.44,2.05,16,8.64,16,16.94,0,9.15-7.79,17.88-21.22,17.88ZM144.48,88.42h-11.46l-12.75-40.89c-.26-.85-.94-1.28-1.63-1.28s-1.36.42-1.63,1.28l-12.75,40.89h-11.46l-16.25-58.95h10.44l10.35,38.93c.23.86.94,1.37,1.71,1.37.68,0,1.35-.43,1.63-1.28l12.23-39.01h11.55l12.32,39.18c.27.86.94,1.28,1.71,1.28s1.47-.41,1.71-1.37l10.09-39.1h10.35l-16.17,58.95ZM170.9,88.42h-10.1l16.17-58.95h10.1l-16.17,58.95ZM222.46,89.7c-15.91,0-29.77-11.46-29.77-30.71s14.37-30.8,29.69-30.8,23.18,8.9,26.69,19.59l-9.24,2.91c-3.08-8.13-8.3-13.09-17.45-13.09-9.75,0-19.42,7.1-19.42,21.39s9.41,21.13,19.51,21.13,15.31-6.67,17.79-13.09l9.07,2.74c-3.08,9.92-11.81,19.93-26.86,19.93ZM299.51,88.42l-4.62-12.66c-.22-.6-.77-1.03-1.45-1.03h-23.87c-.68,0-1.23.43-1.45,1.03l-4.62,12.66h-10.52l22.24-58.95h12.92l22.24,58.95h-10.87Z"/>
</svg>