<?xml version="1.0" encoding="UTF-8"?>
<svg id="Ebene_1" data-name="Ebene 1" xmlns="http://www.w3.org/2000/svg" viewBox="0 0 486 188">
  <defs>
    <style>
      .cls-1 {
        fill: #fff;
      }
    </style>
  </defs>
  <path class="cls-1" d="M465.69,81.46c0-6.72-2.12-11.88-5.37-15.89v-28.23l-6.85-2.66c-5.44-2.11-12.86-4.53-22.11-4.53s-17.13,2.41-23.09,6.95c-2.25,1.72-4.14,3.71-5.68,5.88-6.21-8.33-16.13-12.83-29.14-12.83-23.3,0-36.66,14.38-36.66,39.44,0,1.53.04,3.02.14,4.48h-7.51V31.08h-36.46v4.04l-1.14-.44c-5.44-2.11-12.87-4.53-22.12-4.53s-17.13,2.41-23.09,6.95c-.59.44-.27.21-.82.65l-.92-.37-6.8-2.7c-5.44-2.11-12.87-4.53-22.13-4.53s-17.12,2.41-23.08,6.95c-.58.44-1.14.93-1.68,1.4v-7.42h-62.52l-1.1,9.49-.3,2.56h-15.16l-.29-2.56-1.11-9.49h-36.03l.32,2.56c-5.1-1.79-11.56-3.48-19.32-3.48-9.14,0-17.12,2.41-23.09,6.95-6.45,4.92-10.54,12.28-10.66,20.09v.3l.04,40.38,5.28,3.11c9.2,5.42,18.5,8.07,28.42,8.07,12.84,0,21.83-4.06,27.38-9.96l1.11,9.03h27.37l3.1-5.4,5.05-8.83,5.05,8.83,3.08,5.4h63.36v-5.13c8.02,4.07,16.16,6.06,24.76,6.06,11.38,0,19.75-3.2,25.38-8.03,9.18,5.4,18.47,8.03,28.37,8.03s17.73-2.5,23.26-6.4v5.47h59.99v-4.11c5.54,3.3,12.42,5.04,20.49,5.04,11.33,0,20.3-3.41,26.55-9.79l2.94,1.72c9.21,5.42,18.5,8.07,28.42,8.07,23.72,0,34.34-13.86,34.34-27.59M55.69,98.32c-10.28,0-17.79-3.52-22.97-6.58v-14.63c8.06,5.64,17.96,8.52,22.88,8.52,4.17,0,7.41-.92,7.41-4.17s-2.41-3.98-8.89-5.93c-10.46-3.14-20.94-6.57-20.94-18.33,0-9.08,8.34-16.32,22.52-16.32,6.76,0,12.51,1.59,18.25,3.81v13.06c-6.49-2.6-12.04-4.07-18.16-4.07-4.44,0-6.39,1.11-6.39,3.42s2.5,3.25,7.6,4.92c10.46,3.41,22.32,7.4,22.32,19.45,0,9.83-8.7,16.86-23.62,16.86M145.74,97.39h-11.67l-14.36-25.11-14.36,25.11h-11.68l-6.85-55.59h14.36l3.51,30.39,10.47-18.35h9.08l10.47,18.35,3.51-30.39h14.37l-6.86,55.59ZM180.47,97.39h-15.01v-55.59h15.01v55.59ZM215.95,98.32c-10.28,0-17.78-3.52-22.97-6.58v-14.63c8.05,5.64,17.97,8.52,22.89,8.52,4.16,0,7.41-.92,7.41-4.17s-2.41-3.98-8.9-5.93c-10.46-3.14-20.94-6.57-20.94-18.33,0-9.08,8.34-16.32,22.5-16.32,6.77,0,12.51,1.59,18.26,3.81v13.06c-6.49-2.6-12.04-4.07-18.17-4.07-4.44,0-6.38,1.11-6.38,3.42s2.5,3.25,7.59,4.92c10.47,3.41,22.33,7.4,22.33,19.45,0,9.83-8.7,16.86-23.63,16.86M269.7,98.32c-10.29,0-17.8-3.52-22.98-6.58v-14.63c8.06,5.64,17.97,8.52,22.88,8.52,4.17,0,7.42-.92,7.42-4.17s-2.42-3.98-8.91-5.93c-10.46-3.14-20.92-6.57-20.92-18.33,0-9.08,8.34-16.32,22.52-16.32,6.76,0,12.49,1.59,18.24,3.81v13.06c-6.48-2.6-12.04-4.07-18.17-4.07-4.44,0-6.38,1.11-6.38,3.42s2.5,3.25,7.59,4.92c10.47,3.41,22.33,7.4,22.33,19.45,0,9.83-8.71,16.86-23.62,16.86M342.22,97.39h-38.53v-55.59h15.01v42.98h23.53v12.61ZM373.44,98.32c-19.18,0-25.94-11.67-25.94-28.72s6.75-28.72,25.94-28.72,25.94,11.68,25.94,28.72-6.75,28.72-25.94,28.72M408.37,77.11c8.06,5.64,17.97,8.52,22.89,8.52,4.16,0,7.4-.92,7.4-4.17s-2.41-3.98-8.9-5.93c-10.46-3.14-20.93-6.57-20.93-18.33,0-9.08,8.34-16.32,22.52-16.32,6.76,0,12.51,1.59,18.25,3.81v13.06c-6.48-2.6-12.04-4.07-18.17-4.07-4.44,0-6.39,1.11-6.39,3.42s2.5,3.25,7.6,4.92c10.47,3.41,22.32,7.4,22.32,19.45,0,9.83-8.7,16.86-23.62,16.86-10.29,0-17.79-3.52-22.98-6.58v-14.63Z"/>
  <path class="cls-1" d="M373.44,53.02c-8.71,0-10.93,6.4-10.93,16.58s2.22,16.68,10.93,16.68,10.93-6.39,10.93-16.68-2.22-16.58-10.93-16.58"/>
  <path class="cls-1" d="M34,134.11c-4.55-1.03-9.06-1.54-9.06-5.02,0-3.68,3.16-4.83,6.33-4.83,3.88,0,6.57,1.74,7,5.78h3.56c-.24-6.21-4.63-8.94-10.4-8.94-5.14,0-10.24,2.53-10.24,8.27,0,5.18,4.55,6.49,9.06,7.47,4.51.99,9.02,1.66,9.02,5.54,0,4.07-3.76,5.14-7.16,5.14-4.27,0-8.23-2.06-8.23-6.8h-3.56c0,6.88,5.34,9.97,11.67,9.97,5.14,0,11.03-2.41,11.03-8.43,0-5.54-4.51-7.12-9.02-8.15"/>
  <path class="cls-1" d="M56.7,129.09c-2.81,0-5.42.99-6.53,3.24h-.08v-2.77h-3.36v28.28h3.36v-10.56h.08c1.5,2.41,4.51,3.2,6.6,3.2,6.25,0,9.34-4.86,9.34-10.64s-3.12-10.76-9.41-10.76M56.42,147.52c-4.63,0-6.45-3.72-6.45-7.75s1.74-7.71,6.25-7.71,6.33,3.72,6.33,7.55-1.54,7.91-6.13,7.91"/>
  <path class="cls-1" d="M78.49,129.09c-6.49,0-9.93,4.71-9.93,10.72s3.44,10.68,9.93,10.68,9.93-4.71,9.93-10.68-3.44-10.72-9.93-10.72M78.49,147.52c-3.52,0-6.37-2.77-6.37-7.71s2.85-7.75,6.37-7.75,6.37,2.77,6.37,7.75-2.85,7.71-6.37,7.71"/>
  <path class="cls-1" d="M102.58,129.56h.04v-.47c-3.64-.12-5.89,1.5-7.52,4.79h-.08v-4.31h-3.16v20.45h3.36v-9.1c0-5.18,1.98-8.27,7.4-8.27v-.12h-.04v-2.97Z"/>
  <path class="cls-1" d="M109.42,123.44h-3.36v6.13h-3.44v2.97h3.44v13.01c0,3.76,1.38,4.47,4.87,4.47h2.57v-2.97h-1.54c-2.1,0-2.53-.28-2.53-1.82v-12.7h4.07v-2.97h-4.07v-6.13Z"/>
  <path class="cls-1" d="M118.2,126.52v3.04h-3.44v2.97h3.44v17.48h3.36v-17.48h3.95v-2.97h-3.95v-2.85c0-1.78.95-2.29,2.57-2.29.59,0,1.3.08,1.9.28v-2.93c-.63-.2-1.54-.32-2.18-.32-3.68,0-5.66,1.74-5.66,5.06"/>
  <path class="cls-1" d="M136.95,129.09c-6.49,0-9.93,4.71-9.93,10.72s3.44,10.68,9.93,10.68,9.93-4.71,9.93-10.68-3.44-10.72-9.93-10.72M136.95,147.52c-3.52,0-6.37-2.77-6.37-7.71s2.85-7.75,6.37-7.75,6.37,2.77,6.37,7.75-2.85,7.71-6.37,7.71"/>
  <path class="cls-1" d="M160.32,129.09c-2.93,0-5.22,1.19-6.65,3.72h-.08v-3.25h-3.16v20.45h3.36v-11.55c0-3.68,1.98-6.41,6.05-6.41,2.57,0,4.15,1.62,4.15,4.11v13.85h3.36v-13.45c0-4.39-1.66-7.48-7.04-7.48"/>
  <path class="cls-1" d="M186.94,132.3h-.08c-1.5-2.41-4.51-3.2-6.61-3.2-6.25,0-9.33,4.87-9.33,10.64s3.12,10.76,9.41,10.76c2.81,0,5.42-.99,6.53-3.24h.08v2.77h3.36v-28.24h-3.36v10.52ZM180.81,147.52c-4.35,0-6.33-3.72-6.33-7.55s1.54-7.91,6.13-7.91,6.45,3.72,6.45,7.75-1.74,7.71-6.25,7.71"/>
  <path class="cls-1" d="M204.46,138.23c-3.13-.75-6.68-1.15-6.68-3.56,0-2.06,2.33-2.61,4.35-2.61,2.21,0,4.51.83,4.75,3.44h3.36c-.28-4.98-3.88-6.41-8.38-6.41-3.56,0-7.63,1.7-7.63,5.81s3.36,5.02,6.68,5.77c3.36.75,6.68,1.19,6.68,3.8s-2.85,3.05-4.94,3.05c-2.77,0-5.38-.95-5.5-3.96h-3.36c.2,5.06,4.07,6.92,8.66,6.92,4.15,0,8.7-1.58,8.7-6.45,0-3.95-3.32-5.06-6.68-5.81"/>
  <polygon class="cls-1" points="248.56 121.77 243.7 121.77 229.38 135.85 229.38 121.77 225.62 121.77 225.62 150.01 229.38 150.01 229.38 140.13 234.09 135.74 244.29 150.01 249.04 150.01 236.66 133.17 248.56 121.77"/>
  <path class="cls-1" d="M267.07,145.23v-10.52c0-4.79-3.99-5.62-7.67-5.62-4.55,0-8.47,1.78-8.66,6.84h3.36c.16-3.01,2.25-3.88,5.1-3.88,2.14,0,4.55.47,4.55,3.4,0,2.53-3.16,2.3-6.88,3.01-3.48.67-6.92,1.66-6.92,6.29,0,4.07,3.04,5.73,6.76,5.73,2.85,0,5.34-.99,7.2-3.16,0,2.22,1.11,3.16,2.85,3.16,1.07,0,1.82-.2,2.41-.55v-2.61c-.44.16-.75.2-1.03.2-1.07,0-1.07-.71-1.07-2.29M263.71,142.89c0,1.86-1.82,4.63-6.25,4.63-2.06,0-3.96-.79-3.96-3.01,0-2.49,1.9-3.28,4.11-3.68,2.26-.39,4.79-.44,6.09-1.39v3.44Z"/>
  <path class="cls-1" d="M281.78,129.09c-2.93,0-5.22,1.19-6.64,3.72h-.08v-3.25h-3.16v20.45h3.36v-11.55c0-3.68,1.98-6.41,6.05-6.41,2.57,0,4.16,1.62,4.16,4.11v13.85h3.36v-13.45c0-4.39-1.66-7.48-7.04-7.48"/>
  <path class="cls-1" d="M298.16,123.44h-3.36v6.13h-3.48v2.97h3.48v13.01c0,3.76,1.39,4.47,4.87,4.47h2.57v-2.97h-1.54c-2.1,0-2.53-.28-2.53-1.82v-12.7h4.07v-2.97h-4.07v-6.13Z"/>
  <path class="cls-1" d="M314.38,129.09c-6.49,0-9.93,4.71-9.93,10.72s3.44,10.68,9.93,10.68,9.93-4.71,9.93-10.68-3.44-10.72-9.93-10.72M314.38,147.52c-3.52,0-6.37-2.77-6.37-7.71s2.85-7.75,6.37-7.75,6.37,2.77,6.37,7.75-2.85,7.71-6.37,7.71"/>
  <path class="cls-1" d="M337.75,129.09c-2.93,0-5.22,1.19-6.65,3.72h-.08v-3.25h-3.16v20.45h3.36v-11.55c0-3.68,1.98-6.41,6.05-6.41,2.57,0,4.15,1.62,4.15,4.11v13.85h3.36v-13.45c0-4.39-1.66-7.48-7.04-7.48"/>
  <polygon class="cls-1" points="380.39 124.94 380.39 121.77 359.74 121.77 359.74 124.94 375.96 124.94 358.4 146.85 358.4 150.01 380.86 150.01 380.86 146.85 362.86 146.85 380.39 124.94"/>
  <rect class="cls-1" x="386.8" y="122.49" width="3.56" height="4.11"/>
  <path class="cls-1" d="M397.4,141.11c0,3.68-1.98,6.41-6.05,6.41-2.57,0-4.15-1.62-4.15-4.11v-13.85h-3.36v13.45c0,4.39,1.66,7.47,7.04,7.47,2.93,0,5.22-1.18,6.65-3.72h.08v3.24h3.17v-20.45h-3.36v11.55Z"/>
  <rect class="cls-1" x="394.23" y="122.49" width="3.56" height="4.11"/>
  <path class="cls-1" d="M408.55,133.88h-.08v-4.31h-3.17v20.45h3.36v-9.1c0-5.18,1.98-8.27,7.39-8.27v-3.56c-3.64-.12-5.89,1.5-7.51,4.79"/>
  <rect class="cls-1" x="418.39" y="129.56" width="3.36" height="20.45"/>
  <rect class="cls-1" x="418.39" y="121.77" width="3.36" height="4.11"/>
  <path class="cls-1" d="M435.01,147.52c-4.27,0-5.97-3.72-5.97-7.48,0-4.15,1.5-7.99,6.37-7.99,2.77,0,4.55,1.5,5.06,4.08h3.48c-.47-4.87-4.19-7.04-8.82-7.04-6.49,0-9.65,4.82-9.65,10.96s3.33,10.44,9.57,10.44c5.14,0,8.27-2.96,9.02-7.95h-3.44c-.43,3.08-2.37,4.98-5.62,4.98"/>
  <path class="cls-1" d="M457.31,129.09c-2.45,0-5.34,1.03-6.45,3.48h-.08v-10.8h-3.36v28.24h3.36v-11.55c0-3.68,1.98-6.41,6.05-6.41,2.57,0,4.15,1.62,4.15,4.11v13.85h3.36v-13.45c0-4.39-1.66-7.48-7.04-7.48"/>
</svg>